<svg aria-hidden="true" style="position: absolute; width: 0; height: 0; overflow: hidden;" version="1.1"
    xmlns="http://www.w3.org/2000/svg" xmlns:xlink="http://www.w3.org/1999/xlink">
    <defs>
        <symbol id="icon-open-menu" viewBox="0 0 32 32">
            <path
                d="M4.799 8.001c0-0.424 0.169-0.831 0.469-1.131s0.707-0.469 1.131-0.469h19.2c0.424 0 0.831 0.169 1.131 0.469s0.469 0.707 0.469 1.131-0.169 0.831-0.469 1.131c-0.3 0.3-0.707 0.469-1.131 0.469h-19.2c-0.424 0-0.831-0.169-1.131-0.469s-0.469-0.707-0.469-1.131z">
            </path>
            <path
                d="M4.799 16.001c0-0.424 0.169-0.831 0.469-1.131s0.707-0.469 1.131-0.469h19.2c0.424 0 0.831 0.169 1.131 0.469s0.469 0.707 0.469 1.131c0 0.424-0.169 0.831-0.469 1.131s-0.707 0.469-1.131 0.469h-19.2c-0.424 0-0.831-0.169-1.131-0.469s-0.469-0.707-0.469-1.131z">
            </path>
            <path
                d="M4.799 24.001c0-0.424 0.169-0.831 0.469-1.131s0.707-0.469 1.131-0.469h19.2c0.424 0 0.831 0.169 1.131 0.469s0.469 0.707 0.469 1.131c0 0.424-0.169 0.831-0.469 1.131s-0.707 0.469-1.131 0.469h-19.2c-0.424 0-0.831-0.169-1.131-0.469s-0.469-0.707-0.469-1.131z">
            </path>
        </symbol>
        <symbol id="icon-Vector" viewBox="0 0 32 32">
            <path
                d="M16 0.64c-8.483 0-15.36 6.877-15.36 15.36s6.877 15.36 15.36 15.36c8.483 0 15.36-6.877 15.36-15.36s-6.877-15.36-15.36-15.36zM19.638 11.254h-2.309c-0.274 0-0.578 0.36-0.578 0.838v1.667h2.888l-0.437 2.378h-2.451v7.138h-2.725v-7.138h-2.472v-2.378h2.472v-1.398c0-2.006 1.392-3.637 3.302-3.637h2.309v2.53z">
            </path>
        </symbol>
        <symbol id="icon-cross" viewBox="0 0 32 32">
            <path fill="none" stroke="#7f3a6a" style="stroke: var(--color1, #7f3a6a)" stroke-linejoin="bevel"
                stroke-linecap="round" stroke-miterlimit="4" stroke-width="4" d="M4 28.667l24.667-24.667"></path>
            <path fill="none" stroke="#7f3a6a" style="stroke: var(--color1, #7f3a6a)" stroke-linejoin="bevel"
                stroke-linecap="round" stroke-miterlimit="4" stroke-width="4" d="M4 4l24.667 24.667"></path>
        </symbol>
        <symbol id="icon-facebook" viewBox="0 0 15 32">
            <path fill="#fff" style="fill: var(--color1, #fff)"
                d="M9.485 15.488h4.339l0.562-5.464h-4.898v-3.212c0-1.207 0.8-1.489 1.363-1.489h3.458v-5.305l-4.764-0.018c-5.285 0-6.488 3.956-6.488 6.488v3.535h-3.056v5.465h3.056v15.463h6.429v-15.463z">
            </path>
        </symbol>
        <symbol id="icon-link" viewBox="0 0 32 32">
            <path fill="#fff" style="fill: var(--color1, #fff)"
                d="M8.090 30.742c0.052-0.126 0.079-0.261 0.078-0.398v-18.54c0-0.275-0.109-0.54-0.304-0.735s-0.458-0.305-0.734-0.306h-4.422c-0.276 0-0.541 0.11-0.736 0.305s-0.305 0.46-0.305 0.736v18.54c-0 0.137 0.026 0.272 0.078 0.399s0.129 0.241 0.226 0.338c0.097 0.097 0.212 0.173 0.338 0.226s0.262 0.079 0.399 0.078h4.422c0.137 0 0.272-0.027 0.398-0.079s0.241-0.129 0.337-0.226c0.096-0.097 0.173-0.211 0.225-0.338z">
            </path>
            <path fill="#fff" style="fill: var(--color1, #fff)"
                d="M2.587 8.3c0.69 0.461 1.501 0.707 2.331 0.707 1.113 0 2.18-0.442 2.967-1.229s1.229-1.854 1.229-2.967c0-0.83-0.246-1.641-0.707-2.331s-1.116-1.228-1.883-1.545c-0.767-0.318-1.61-0.401-2.424-0.239s-1.562 0.562-2.148 1.148c-0.587 0.587-0.986 1.334-1.148 2.148s-0.079 1.658 0.239 2.424c0.318 0.767 0.855 1.422 1.545 1.883z">
            </path>
            <path fill="#fff" style="fill: var(--color1, #fff)"
                d="M31.212 30.783c0.048-0.116 0.072-0.241 0.072-0.367l-0.006-8.962v-0.076c0-3.915 0.001-10.922-7.552-10.922-3.432 0-5.041 1.253-6.126 2.884v-1.617c0-0.254-0.101-0.497-0.28-0.676s-0.423-0.28-0.676-0.28h-4.593c-0.126 0-0.25 0.025-0.366 0.073s-0.221 0.119-0.31 0.207c-0.089 0.089-0.159 0.194-0.207 0.31s-0.072 0.24-0.072 0.366v18.705c-0 0.126 0.024 0.25 0.072 0.366s0.118 0.222 0.207 0.31c0.089 0.089 0.194 0.159 0.31 0.207s0.24 0.073 0.366 0.073h4.593c0.251-0.004 0.491-0.106 0.667-0.285s0.275-0.42 0.275-0.672v-10.031c0.118-1.348 0.713-4.35 3.636-4.35 3.774 0 3.393 4.386 3.393 5.684v8.685c-0 0.126 0.024 0.25 0.072 0.367s0.118 0.222 0.207 0.311c0.089 0.089 0.194 0.159 0.311 0.207s0.241 0.072 0.367 0.072h4.755c0.126 0 0.25-0.024 0.367-0.072s0.222-0.118 0.311-0.207c0.089-0.089 0.159-0.194 0.207-0.311z">
            </path>
        </symbol>
        <symbol id="icon-instagram" viewBox="0 0 32 32">
            <path fill="#fff" style="fill: var(--color1, #fff)"
                d="M31.969 9.408c-0.075-1.7-0.35-2.869-0.744-3.882-0.406-1.075-1.031-2.038-1.85-2.838-0.8-0.813-1.769-1.444-2.832-1.844-1.019-0.394-2.182-0.669-3.882-0.744-1.713-0.081-2.257-0.1-6.601-0.1s-4.888 0.019-6.595 0.094c-1.7 0.075-2.869 0.35-3.882 0.744-1.075 0.406-2.038 1.031-2.838 1.85-0.813 0.8-1.444 1.769-1.844 2.832-0.394 1.019-0.669 2.182-0.744 3.882-0.081 1.713-0.1 2.257-0.1 6.601s0.019 4.888 0.094 6.595c0.075 1.7 0.35 2.869 0.744 3.882 0.406 1.075 1.038 2.038 1.85 2.838 0.8 0.813 1.769 1.444 2.832 1.844 1.019 0.394 2.182 0.669 3.882 0.744 1.706 0.075 2.25 0.094 6.595 0.094s4.888-0.018 6.595-0.094c1.7-0.075 2.869-0.35 3.882-0.744 2.151-0.831 3.851-2.532 4.682-4.682 0.394-1.019 0.669-2.182 0.744-3.882 0.075-1.707 0.094-2.25 0.094-6.595s-0.006-4.888-0.081-6.595zM29.087 22.473c-0.069 1.563-0.331 2.407-0.55 2.969-0.538 1.394-1.644 2.5-3.038 3.038-0.563 0.219-1.413 0.481-2.969 0.55-1.688 0.075-2.194 0.094-6.464 0.094s-4.782-0.019-6.464-0.094c-1.563-0.069-2.407-0.331-2.969-0.55-0.694-0.256-1.325-0.663-1.838-1.194-0.531-0.519-0.938-1.144-1.194-1.838-0.219-0.563-0.481-1.413-0.55-2.969-0.075-1.688-0.094-2.194-0.094-6.464s0.019-4.782 0.094-6.464c0.069-1.563 0.331-2.407 0.55-2.969 0.256-0.694 0.663-1.325 1.2-1.838 0.519-0.531 1.144-0.938 1.838-1.194 0.563-0.219 1.413-0.481 2.969-0.55 1.688-0.075 2.194-0.094 6.464-0.094 4.276 0 4.782 0.019 6.464 0.094 1.563 0.069 2.407 0.331 2.969 0.55 0.694 0.256 1.325 0.662 1.838 1.194 0.531 0.519 0.938 1.144 1.194 1.838 0.219 0.563 0.481 1.413 0.55 2.969 0.075 1.688 0.094 2.194 0.094 6.464s-0.019 4.77-0.094 6.458z">
            </path>
            <path fill="#fff" style="fill: var(--color1, #fff)"
                d="M16.059 7.783c-4.538 0-8.22 3.682-8.22 8.22s3.682 8.22 8.22 8.22c4.538 0 8.22-3.682 8.22-8.22s-3.682-8.22-8.22-8.22zM16.059 21.335c-2.944 0-5.332-2.388-5.332-5.332s2.388-5.332 5.332-5.332c2.944 0 5.332 2.388 5.332 5.332s-2.388 5.332-5.332 5.332z">
            </path>
            <path fill="#fff" style="fill: var(--color1, #fff)"
                d="M26.524 7.458c0 1.060-0.859 1.919-1.919 1.919s-1.919-0.859-1.919-1.919c0-1.060 0.859-1.919 1.919-1.919s1.919 0.859 1.919 1.919z">
            </path>
        </symbol>
    </defs>
</svg>